<?xml version="1.0" encoding="UTF-8"?>
<svg width="1986px" height="419px" viewBox="0 0 1986 419" version="1.1" xmlns="http://www.w3.org/2000/svg"
     xmlns:xlink="http://www.w3.org/1999/xlink">
    <!-- Generator: Sketch 57.1 (83088) - https://sketch.com -->
    <title>Slice</title>
    <desc>Created with Sketch.</desc>
    <g id="Page-1" stroke="none" stroke-width="1" fill="none" fill-rule="evenodd">
        <g id="orizon-logo" transform="translate(-283.000000, -155.000000)" fill="#F18416" fill-rule="nonzero">
            <g id="Ebene_1" transform="translate(283.000000, 155.000000)">
                <path d="M132.6,117.11 C221.81,117.11 264.45,176.54 264.45,265.15 C264.45,359.36 216.2,413.18 132.6,413.18 C43.39,413.18 0.21,353.75 0.21,265.15 C0.21,170.95 49.01,117.11 132.6,117.11 M132.6,351.5 C170.19,351.5 189.27,324.59 189.27,265.14 C189.27,213.55 173.57,178.78 132.6,178.78 C96.69,178.78 75.38,204.02 75.38,265.14 C75.38,314.49 92.21,351.5 132.6,351.5"
                      id="Shape"></path>
                <path d="M486.51,199.22 C475.29,195.29 464.64,193.06 455.09,193.06 C428.74,193.06 404.61,221.27 404.61,252.11 L404.61,411.18 L331.68,411.18 L331.68,130.81 L388.34,130.81 L396.76,164.31 C396.76,164.31 413.99,124.64 462.95,124.64 C473.06,124.64 484.28,126.89 496.06,130.8 L486.51,199.22 Z"
                      id="Path"></path>
                <polygon id="Path"
                         points="715.65 130.35 715.65 192.04 854.78 192.04 715.65 349.03 715.65 410.72 935.56 410.72 935.56 349.03 798.11 349.03 935.56 192.04 935.56 130.35"></polygon>
                <path d="M1130.23,356.9 C1089.84,356.9 1073.01,319.89 1073.01,270.54 C1073.01,209.42 1094.32,184.17 1130.23,184.17 C1171.19,184.17 1186.9,218.95 1186.9,270.54 C1186.9,329.98 1167.82,356.9 1130.23,356.9 M1130.23,122.51 C1046.64,122.51 997.84,176.34 997.84,270.55 C997.84,359.14 1041.03,418.58 1130.23,418.58 C1213.82,418.58 1262.07,364.76 1262.07,270.55 C1262.08,181.94 1219.44,122.51 1130.23,122.51"
                      id="Shape"></path>
                <path d="M1500.97,410.72 L1500.97,251.48 C1500.97,206.05 1488.62,186.99 1457.78,186.99 C1430.28,186.99 1402.23,216.06 1402.23,270.64 L1402.23,410.72 L1329.29,410.72 L1329.29,130.36 L1387.08,130.36 L1395.5,163.86 C1395.5,163.86 1421.7,122.52 1486.94,122.52 C1543.04,122.52 1573.9,148.86 1573.9,236.35 L1573.9,410.73 L1500.97,410.73 L1500.97,410.72 Z"
                      id="Path"></path>
                <g id="Group" transform="translate(560.000000, 0.000000)">
                    <rect id="Rectangle" x="6.28" y="130.35" width="72.92" height="280.37"></rect>
                    <path d="M85.49,42.85 C85.49,66.44 66.36,85.55 42.76,85.55 C19.16,85.55 0.03,66.44 0.03,42.85 C0.03,19.26 19.16,0.15 42.76,0.15 C66.36,0.15 85.49,19.26 85.49,42.85"
                          id="Path"></path>
                </g>
                <g id="Group" transform="translate(1701.000000, 127.000000)">
                    <path d="M130.22,0.39 L11.1,0.39 C5.28,0.39 0.52,5.15 0.52,10.97 L0.52,120.11 C67.58,117.18 122.12,65.98 130.22,0.39 Z"
                          id="Path"></path>
                    <path d="M273.72,0.39 L211.91,0.39 C203.41,110.93 112.51,198.39 0.53,201.45 L0.53,273.59 C0.53,279.41 5.29,284.17 11.11,284.17 L273.73,284.17 C279.55,284.17 284.31,279.41 284.31,273.59 L284.31,10.97 C284.3,5.15 279.53,0.39 273.72,0.39 Z"
                          id="Path"></path>
                </g>
            </g>
        </g>
    </g>
</svg>
